<svg xmlns="http://www.w3.org/2000/svg" viewBox="0 0 64 40" role="img" aria-label="Visa">
  <rect width="64" height="40" rx="5" fill="#FFFFFF" stroke="#E5E7EB" stroke-width="1"/>
  <g fill="#1A1F71">
    <path d="M22.7 27.7l2.7-15.5h4.3L27 27.7h-4.3z"/>
    <path d="M40.5 12.4c-.9-.3-2.2-.7-3.9-.7-4.3 0-7.3 2.2-7.3 5.4 0 2.4 2.2 3.6 3.9 4.4 1.7.7 2.3 1.2 2.3 1.9 0 1-1.3 1.5-2.5 1.5-1.7 0-2.6-.2-4-.8l-.5-.3-.6 3.4c1 .4 2.7.8 4.5.8 4.6 0 7.5-2.2 7.6-5.5 0-1.9-1.2-3.3-3.6-4.4-1.5-.7-2.4-1.2-2.4-1.9 0-.7.8-1.4 2.5-1.4 1.4 0 2.4.3 3.2.6l.4.2.5-3.2z"/>
    <path d="M50.5 12.2h-3.3c-1 0-1.8.3-2.3 1.3l-6.4 14.2h4.5l.9-2.4 5.5.1.5 2.4h4l-3.4-15.6zm-5.3 9.9c.3-.9 1.7-4.5 1.7-4.5 0 .1.3-1 .5-1.6l.3 1.4s.8 4 1 4.7h-3.5z"/>
    <path d="M19.1 12.2L14.9 22.7l-.5-2.2c-.8-2.5-3.2-5.2-5.9-6.6l3.9 13.8h4.5l6.7-15.5h-4.5z"/>
  </g>
  <path d="M11.5 12.2H4.6l-.1.4c5.4 1.3 9 4.5 10.4 8.4L13.5 14c-.3-1.2-1.1-1.7-2-1.8z" fill="#F7B600"/>
</svg>
